<?xml version="1.0" encoding="utf-8" ?>
<svg baseProfile="full" height="2000px" version="1.1" width="600px" xmlns="http://www.w3.org/2000/svg" xmlns:ev="http://www.w3.org/2001/xml-events" xmlns:xlink="http://www.w3.org/1999/xlink"><defs /><text font-size="20px" font-weight="bold" x="30" y="30">Plant groups</text><rect fill="#574104" height="18" width="18" x="30" y="56" /><text font-size="16px" x="60" y="70">Algae</text><rect fill="#ab730c" height="18" width="18" x="30" y="84" /><text font-size="16px" x="60" y="98">Lycophytes</text><rect fill="#faaf00" height="18" width="18" x="30" y="112" /><text font-size="16px" x="60" y="126">Liverworts</text><rect fill="#c1d717" height="18" width="18" x="30" y="140" /><text font-size="16px" x="60" y="154">Ferns</text><rect fill="#89be86" height="18" width="18" x="30" y="168" /><text font-size="16px" x="60" y="182">Mosses</text><rect fill="#076247" height="18" width="18" x="30" y="196" /><text font-size="16px" x="60" y="210">Gymnosperms</text><rect fill="#3BA0BC" height="18" width="18" x="30" y="224" /><text font-size="16px" x="60" y="238">Early Angiosperms</text><rect fill="#7502d9" height="18" width="18" x="30" y="252" /><text font-size="16px" x="60" y="266">Monocots</text><rect fill="#edc5ec" height="18" width="18" x="30" y="280" /><text font-size="16px" x="60" y="294">Dicots</text><text font-size="20px" font-weight="bold" x="30" y="362">Putative 2ODD function</text><rect fill="#e5ac00" height="18" width="18" x="30" y="388" /><text font-size="16px" x="60" y="402">GRS</text><rect fill="#ec640f" height="18" width="18" x="30" y="416" /><text font-size="16px" x="60" y="430">GSLOH</text><rect fill="#bf7979" height="18" width="18" x="30" y="444" /><text font-size="16px" x="60" y="458">D4H</text><rect fill="#af8300" height="18" width="18" x="30" y="472" /><text font-size="16px" x="60" y="486">TIIAS</text><rect fill="#e0bbbb" height="18" width="18" x="30" y="500" /><text font-size="16px" x="60" y="514">BX6</text><rect fill="#f57829" height="18" width="18" x="30" y="528" /><text font-size="16px" x="60" y="542">S8H</text><rect fill="#ec8612" height="18" width="18" x="30" y="556" /><text font-size="16px" x="60" y="570">F6H</text><rect fill="#ffd966" height="18" width="18" x="30" y="584" /><text font-size="16px" x="60" y="598">C2H</text><rect fill="#e8eed0" height="18" width="18" x="30" y="612" /><text font-size="16px" x="60" y="626">GA7ox</text><rect fill="#fff2cc" height="18" width="18" x="30" y="640" /><text font-size="16px" x="60" y="654">2ODDC23</text><rect fill="#ffe599" height="18" width="18" x="30" y="668" /><text font-size="16px" x="60" y="682">2OG1</text><rect fill="#f4e8c3" height="18" width="18" x="30" y="696" /><text font-size="16px" x="60" y="710">LFS</text><rect fill="#b6d7a8" height="18" width="18" x="30" y="724" /><text font-size="16px" x="60" y="738">C19_GA2ox</text><rect fill="#64b541" height="18" width="18" x="30" y="752" /><text font-size="16px" x="60" y="766">GA3ox</text><rect fill="#a0bd94" height="18" width="18" x="30" y="780" /><text font-size="16px" x="60" y="794">GA13ox</text><rect fill="#6aa84f" height="18" width="18" x="30" y="808" /><text font-size="16px" x="60" y="822">GA20ox</text><rect fill="#406732" height="18" width="18" x="30" y="836" /><text font-size="16px" x="60" y="850">C20_GA2ox</text><rect fill="#539185" height="18" width="18" x="30" y="864" /><text font-size="16px" x="60" y="878">DAO</text><rect fill="#377672" height="18" width="18" x="30" y="892" /><text font-size="16px" x="60" y="906">DPS</text><rect fill="#438195" height="18" width="18" x="30" y="920" /><text font-size="16px" x="60" y="934">AOP2</text><rect fill="#438195" height="18" width="18" x="30" y="948" /><text font-size="16px" x="60" y="962">AOP3</text><rect fill="#6fa8dc" height="18" width="18" x="30" y="976" /><text font-size="16px" x="60" y="990">JOX</text><rect fill="#2c6190" height="18" width="18" x="30" y="1004" /><text font-size="16px" x="60" y="1018">LBO</text><rect fill="#1a3852" height="18" width="18" x="30" y="1032" /><text font-size="16px" x="60" y="1046">NCS</text><rect fill="#e688b8" height="18" width="18" x="30" y="1060" /><text font-size="16px" x="60" y="1074">M2H_weak</text><rect fill="#316a9f" height="18" width="18" x="30" y="1088" /><text font-size="16px" x="60" y="1102">SRG</text><rect fill="#316ca2" height="18" width="18" x="30" y="1116" /><text font-size="16px" x="60" y="1130">COD</text><rect fill="#3371a8" height="18" width="18" x="30" y="1144" /><text font-size="16px" x="60" y="1158">T6OD</text><rect fill="#3d85c6" height="18" width="18" x="30" y="1172" /><text font-size="16px" x="60" y="1186">ACCO</text><rect fill="#8e7cc3" height="18" width="18" x="30" y="1200" /><text font-size="16px" x="60" y="1214">ANS</text><rect fill="#b4a7d6" height="18" width="18" x="30" y="1228" /><text font-size="16px" x="60" y="1242">FLS</text><rect fill="#784fe1" height="18" width="18" x="30" y="1256" /><text font-size="16px" x="60" y="1270">DAH</text><rect fill="#c492cc" height="18" width="18" x="30" y="1284" /><text font-size="16px" x="60" y="1298">FNSI</text><rect fill="#f4cccc" height="18" width="18" x="30" y="1312" /><text font-size="16px" x="60" y="1326">F3H</text><rect fill="#95a3af" height="18" width="18" x="30" y="1340" /><text font-size="16px" x="60" y="1354">S3H</text><rect fill="#abbbc9" height="18" width="18" x="30" y="1368" /><text font-size="16px" x="60" y="1382">S5H</text><rect fill="#c2d3e2" height="18" width="18" x="30" y="1396" /><text font-size="16px" x="60" y="1410">DMR6</text><rect fill="#e9d0db" height="18" width="18" x="30" y="1424" /><text font-size="16px" x="60" y="1438">H6H</text><rect fill="#cd87a6" height="18" width="18" x="30" y="1452" /><text font-size="16px" x="60" y="1466">IDS</text><rect fill="#c27ba0" height="18" width="18" x="30" y="1480" /><text font-size="16px" x="60" y="1494">M2H</text><rect fill="#d0d2e5" height="18" width="18" x="30" y="1508" /><text font-size="16px" x="60" y="1522">GIM</text><rect fill="#cfe2f3" height="18" width="18" x="30" y="1536" /><text font-size="16px" x="60" y="1550">SLC</text></svg>